<svg id="a" fill="none" version="1.1" viewBox="0 0 32 32" xmlns="http://www.w3.org/2000/svg">
    <g id="b" transform="translate(-.062861 -.060918)" fill="#f44336" fill-rule="evenodd">
        <g id="c" transform="translate(-7.4434 -7.441)">
            <path id="d" d="m23.508 27.033-3.5352-3.5352c-3.6948 3.7214-7.4448 7.391-11.104 11.146-1.3054 1.6979 0.59007 4.4553 2.6501 3.8527 1.4514-0.48862 2.2737-1.8993 3.3925-2.8661 2.8657-2.8657 5.7313-5.7313 8.597-8.597z"/>
            <path id="e" d="m23.508 19.963-3.5352 3.5352 3.5352 3.5352c1.1784-1.1784 2.3568-2.3568 3.5352-3.5352-1.1784-1.1784-2.3568-2.3568-3.5352-3.5352z"/>
            <path id="f" d="m10.994 8.4414c-2.0561-0.095642-3.4288 2.8627-1.806 4.256 3.5822 3.6129 7.1921 7.198 10.785 10.801l3.5352-3.5352c-3.7282-3.6922-7.3854-7.4635-11.159-11.105-0.39635-0.26987-0.87477-0.41973-1.3548-0.41612z"/>
        </g>
        <g id="g" transform="matrix(-1 0 0 1 45.307 -7.0281)">
            <path id="h" d="m29.246 26.62-3.5352-3.5352c-3.6948 3.7214-7.4448 7.391-11.104 11.146-1.3054 1.6979 0.59007 4.4553 2.6501 3.8527 1.4514-0.48862 2.2737-1.8993 3.3925-2.8661 2.8657-2.8657 5.7313-5.7313 8.597-8.597z"/>
            <path id="i" d="m29.246 19.55-3.5352 3.5352 3.5352 3.5352c1.1784-1.1784 2.3568-2.3568 3.5352-3.5352-1.1784-1.1784-2.3568-2.3568-3.5352-3.5352z"/>
            <path id="j" d="m16.732 8.0281c-2.0561-0.095643-3.4288 2.8627-1.806 4.256 3.5822 3.6129 7.1921 7.198 10.785 10.801l3.5352-3.5352c-3.7282-3.6922-7.3854-7.4635-11.159-11.105-0.39635-0.26987-0.87477-0.41973-1.3548-0.41612z"/>
        </g>
    </g>
</svg>
