<?xml version="1.0" encoding="utf-8"?>
<svg width="189" height="189" viewBox="0 0 189 189" fill="none" xmlns="http://www.w3.org/2000/svg">
  <g>
    <rect width="189" height="189" />
    <path id="Shape" d="M17.7188 9.53674e-07C8.00297 9.53674e-07 0 8.00297 0 17.7188C0 17.7188 0 139.781 0 139.781C0 149.497 8.00297 157.5 17.7188 157.5C17.7188 157.5 108.281 157.5 108.281 157.5C117.997 157.5 126 149.497 126 139.781C126 139.781 126 57.0938 126 57.0938C126 55.5285 125.378 54.0264 124.27 52.9187C124.27 52.9187 124.208 52.8563 124.208 52.8563C124.208 52.8563 73.0822 1.73035 73.0822 1.73035C71.9747 0.622711 70.4726 0.000301361 68.9063 0C68.9063 0 17.7188 9.53674e-07 17.7188 9.53674e-07C17.7188 9.53674e-07 17.7188 9.53674e-07 17.7188 9.53674e-07ZM17.7188 11.8125L63 11.8125C63 11.8125 63 45.2813 63 45.2813C63 54.997 71.003 63 80.7188 63C80.7188 63 114.188 63 114.188 63C114.188 63 114.188 139.781 114.188 139.781C114.188 143.114 111.614 145.688 108.281 145.688C108.281 145.688 17.7188 145.688 17.7188 145.688C14.3857 145.688 11.8125 143.114 11.8125 139.781C11.8125 139.781 11.8125 17.7188 11.8125 17.7188C11.8125 14.3857 14.3857 11.8125 17.7188 11.8125C17.7188 11.8125 17.7188 11.8125 17.7188 11.8125ZM74.8125 20.1643L105.836 51.1875C105.836 51.1875 80.7188 51.1875 80.7188 51.1875C77.3857 51.1875 74.8125 48.6143 74.8125 45.2813C74.8125 45.2813 74.8125 20.1643 74.8125 20.1643L74.8125 20.1643Z" fill="#FFFFFF" transform="translate(31.5 15.75)" />
  </g>
</svg>