<?xml version="1.0" encoding="UTF-8" standalone="no"?>
<!-- Created with Inkscape (http://www.inkscape.org/) -->

<svg
   width="36mm"
   height="36mm"
   viewBox="0 0 36 36"
   version="1.1"
   id="svg1"
   inkscape:version="1.4 (86a8ad7, 2024-10-11)"
   sodipodi:docname="gear.svg"
   xmlns:inkscape="http://www.inkscape.org/namespaces/inkscape"
   xmlns:sodipodi="http://sodipodi.sourceforge.net/DTD/sodipodi-0.dtd"
   xmlns="http://www.w3.org/2000/svg"
   xmlns:svg="http://www.w3.org/2000/svg">
  <sodipodi:namedview
     id="namedview1"
     pagecolor="#ffffff"
     bordercolor="#000000"
     borderopacity="0.25"
     inkscape:showpageshadow="2"
     inkscape:pageopacity="0.0"
     inkscape:pagecheckerboard="0"
     inkscape:deskcolor="#d1d1d1"
     inkscape:document-units="mm"
     inkscape:zoom="4.1071317"
     inkscape:cx="61.965385"
     inkscape:cy="66.591485"
     inkscape:window-width="1920"
     inkscape:window-height="1017"
     inkscape:window-x="-8"
     inkscape:window-y="32"
     inkscape:window-maximized="1"
     inkscape:current-layer="layer1" />
  <defs
     id="defs1" />
  <g
     inkscape:label="Layer 1"
     inkscape:groupmode="layer"
     id="layer1">
    <path
       d="M 17.999935,3.0261719 A 14.974058,14.974058 0 0 0 3.0261719,17.999935 14.974058,14.974058 0 0 0 17.999935,32.974215 14.974058,14.974058 0 0 0 32.974215,17.999935 14.974058,14.974058 0 0 0 17.999935,3.0261719 Z m 0,5.1846964 a 9.7889919,9.7889919 0 0 1 9.789066,9.7890667 9.7889919,9.7889919 0 0 1 -9.789066,9.789066 9.7889919,9.7889919 0 0 1 -9.7890667,-9.789066 9.7889919,9.7889919 0 0 1 9.7890667,-9.7890667 z"
       style="fill-rule:evenodd;stroke:#000000;stroke-width:0.562633"
       id="path3" />
  </g>
</svg>
