<?xml version="1.0" encoding="UTF-8" standalone="no"?>
<svg
   width="180.75"
   height="195.816"
   viewBox="0 0 180.75 195.816"
   fill="none"
   version="1.1"
   id="svg1"
   sodipodi:docname="House_nodoor_is.svg"
   inkscape:version="1.4 (86a8ad7, 2024-10-11)"
   xml:space="preserve"
   xmlns:inkscape="http://www.inkscape.org/namespaces/inkscape"
   xmlns:sodipodi="http://sodipodi.sourceforge.net/DTD/sodipodi-0.dtd"
   xmlns="http://www.w3.org/2000/svg"
   xmlns:svg="http://www.w3.org/2000/svg"><defs
     id="defs1"><inkscape:path-effect
       effect="fillet_chamfer"
       id="path-effect220"
       is_visible="true"
       lpeversion="1"
       nodesatellites_param="F,0,0,1,0,0,0,1 @ F,0,1,1,0,9.997506,0,1 @ F,0,0,1,0,0,0,1 @ F,0,0,1,0,0,0,1 | F,0,1,1,0,9.997506,0,1 @ F,0,0,1,0,9.997506,0,1 @ F,0,0,1,0,0,0,1 @ F,0,0,1,0,0,0,1 | F,0,1,1,0,9.997506,0,1 @ F,0,0,1,0,0,0,1 @ F,0,0,1,0,0,0,1 @ F,0,0,1,0,0,0,1"
       radius="0"
       unit="px"
       method="auto"
       mode="F"
       chamfer_steps="1"
       flexible="false"
       use_knot_distance="true"
       apply_no_radius="true"
       apply_with_radius="true"
       only_selected="false"
       hide_knots="false" /><inkscape:path-effect
       effect="fillet_chamfer"
       id="path-effect208"
       is_visible="true"
       lpeversion="1"
       nodesatellites_param="F,0,0,1,0,0,0,4 @ F,0,0,1,0,0,0,4 @ F,0,0,1,0,0,0,4 @ F,0,0,1,0,0,0,4"
       radius="1"
       unit="px"
       method="auto"
       mode="F"
       chamfer_steps="4"
       flexible="false"
       use_knot_distance="true"
       apply_no_radius="true"
       apply_with_radius="true"
       only_selected="false"
       hide_knots="false" /></defs><sodipodi:namedview
     id="namedview1"
     pagecolor="#5b5b5b"
     bordercolor="#000000"
     borderopacity="0.25"
     inkscape:showpageshadow="2"
     inkscape:pageopacity="0.0"
     inkscape:pagecheckerboard="0"
     inkscape:deskcolor="#383838"
     inkscape:zoom="16"
     inkscape:cx="101.0625"
     inkscape:cy="123.96875"
     inkscape:window-width="1920"
     inkscape:window-height="1017"
     inkscape:window-x="-8"
     inkscape:window-y="32"
     inkscape:window-maximized="1"
     inkscape:current-layer="svg1"
     showgrid="true"><inkscape:grid
       id="grid207"
       units="px"
       originx="0"
       originy="0"
       spacingx="1"
       spacingy="1"
       empcolor="#0099e5"
       empopacity="0.30196078"
       color="#0099e5"
       opacity="0.14901961"
       empspacing="5"
       enabled="true"
       visible="true" /></sodipodi:namedview><path
     d="M 90.128906,0.00390625 C 88.523106,0.05874631 86.977497,0.6248497 85.716797,1.6210937 L 14.355469,57.841797 C 5.2984385,64.979597 0,75.886869 0,87.417969 v 95.845701 c 0,6.846 5.7063348,12.55274 12.552734,12.55274 h 50.207032 c 0.01268,0 0.02444,-0.004 0.03711,-0.004 h 55.156254 c 0.0127,4e-5 0.0244,0.004 0.0371,0.004 h 50.20704 c 6.846,0 12.55273,-5.70674 12.55273,-12.55274 V 87.417969 c 0,-11.5311 -5.29847,-22.438372 -14.35547,-29.576172 L 95.033203,1.6210937 c -1.3927,-1.100192 -3.130297,-1.67237469 -4.904297,-1.61718745 z M 90.375,17.125 157.07812,69.677734 c 5.44301,4.2897 8.60938,10.814735 8.60938,17.740235 V 180.75391 H 128.38281 120.5 105.4375 v 0.004 h -30.125 v -0.004 H 60.25 52.367187 15.0625 V 87.417969 c 0,-6.9255 3.166275,-13.450535 8.609375,-17.740235 z"
     style="display:inline;fill:#000000"
     id="path208" /><path
     id="rect208-3"
     style="fill:#000000;fill-opacity:1;fill-rule:evenodd;stroke:#000000;stroke-width:5.73894"
     d="m 93.326805,130.42026 h 37.477545 a 9.997506,9.997506 45 0 1 9.99751,9.99751 v 37.47755 H 93.326805 Z M 76.636117,77.209198 h 27.480043 a 9.997506,9.997506 45 0 1 9.99751,9.997506 V 124.68426 H 66.638611 V 87.206704 a 9.997506,9.997506 135 0 1 9.997506,-9.997506 z M 50.113038,130.42001 h 37.477553 v 47.47506 H 40.115532 v -37.47755 a 9.997506,9.997506 135 0 1 9.997506,-9.99751 z"
     inkscape:original-d="m 93.326805,130.42026 h 47.475055 v 47.47506 H 93.326805 Z M 66.638611,77.209198 H 114.11367 V 124.68426 H 66.638611 Z M 40.115532,130.42001 h 47.475059 v 47.47506 H 40.115532 Z"
     inkscape:path-effect="#path-effect220"
     transform="translate(-0.083696,-0.01060859)" /><rect
     style="fill:#808080;fill-opacity:1;fill-rule:evenodd;stroke:#808080;stroke-width:6.87127;stroke-opacity:1"
     id="rect223"
     width="34.012539"
     height="36.659744"
     x="47.621422"
     y="138.64821" /><rect
     style="fill:#808080;fill-opacity:1;fill-rule:evenodd;stroke:#808080;stroke-width:7.09092;stroke-opacity:1"
     id="rect223-9"
     width="36.440079"
     height="36.440079"
     x="96.578674"
     y="138.75845" /><rect
     style="fill:#808080;fill-opacity:1;fill-rule:evenodd;stroke:#808080;stroke-width:6.58453;stroke-opacity:1"
     id="rect223-9-0"
     width="30.990541"
     height="36.946472"
     x="74.87973"
     y="87.387871" /></svg>
