<?xml version="1.0" encoding="utf-8"?>
<svg width="180.75" height="195.816" viewBox="0 0 180.75 195.816" fill="none" xmlns="http://www.w3.org/2000/svg">
  <path id="Shape" d="M90.1298 0.00364494C88.524 0.058485 86.9777 0.625446 85.717 1.62169C85.717 1.62169 14.3564 57.8413 14.3564 57.8413C5.29937 64.9791 0 75.886 0 87.4171C0 87.4171 0 183.264 0 183.264C0 190.11 5.7057 195.816 12.5521 195.816C12.5521 195.816 62.7604 195.816 62.7604 195.816C69.6068 195.816 75.3125 190.11 75.3125 183.264C75.3125 183.264 75.3125 133.056 75.3125 133.056C75.3125 131.574 76.3415 130.545 77.8229 130.545C77.8229 130.545 102.927 130.545 102.927 130.545C104.408 130.545 105.438 131.574 105.438 133.056C105.438 133.056 105.438 183.264 105.438 183.264C105.438 190.11 111.143 195.816 117.99 195.816C117.99 195.816 168.198 195.816 168.198 195.816C175.044 195.816 180.75 190.11 180.75 183.264C180.75 183.264 180.75 87.4171 180.75 87.4171C180.75 75.886 175.451 64.9791 166.394 57.8413C166.394 57.8413 95.033 1.62169 95.033 1.62169C93.6403 0.521498 91.9038 -0.0515423 90.1298 0.00364494C90.1298 0.00364494 90.1298 0.00364494 90.1298 0.00364494ZM90.375 17.1255C90.375 17.1255 157.078 69.6775 157.078 69.6775C162.521 73.9672 165.688 80.4917 165.688 87.4172C165.688 87.4172 165.688 180.754 165.688 180.754L120.5 180.754C120.5 180.754 120.5 133.056 120.5 133.056C120.5 123.441 112.542 115.483 102.927 115.483C102.927 115.483 77.8229 115.483 77.8229 115.483C68.2083 115.483 60.25 123.441 60.25 133.056C60.25 133.056 60.25 180.754 60.25 180.754L15.0625 180.754C15.0625 180.754 15.0625 87.4172 15.0625 87.4172C15.0625 80.4917 18.2293 73.9672 23.6724 69.6775C23.6724 69.6775 90.375 17.1255 90.375 17.1255L90.375 17.1255Z" fill="#000" transform="translate(0 0)" />
</svg>