<svg id="svg1" fill="none" version="1.1" viewBox="0 0 180.75 195.82" xmlns="http://www.w3.org/2000/svg">
    <path id="path208" d="m90.129 0.0039062c-1.6058 0.05484-3.1514 0.62094-4.4121 1.6172l-71.361 56.221c-9.057 7.1378-14.355 18.045-14.355 29.576v95.846c0 6.846 5.7063 12.553 12.553 12.553h50.207c0.01268 0 0.02444-4e-3 0.03711-4e-3h55.156c0.0127 4e-5 0.0244 4e-3 0.0371 4e-3h50.207c6.846 0 12.553-5.7067 12.553-12.553v-95.846c0-11.531-5.2985-22.438-14.355-29.576l-71.361-56.221c-1.3927-1.1002-3.1303-1.6724-4.9043-1.6172zm0.24609 17.121 66.703 52.553c5.443 4.2897 8.6094 10.815 8.6094 17.74v93.336h-60.25v4e-3h-30.125v-4e-3h-60.25v-93.336c0-6.9255 3.1663-13.451 8.6094-17.74z" fill="#000"/>
</svg>
