<svg id="svg6" fill="none" version="1.1" viewBox="0 0 60 413.16" xmlns="http://www.w3.org/2000/svg">
    <g id="Icons">
        <g id="g1" transform="translate(0 353.16)">
            <rect id="rect1" width="60" height="60"/>
            <path id="Shape" transform="translate(9 10)" d="m30.48 0c-0.8536 0-1.7065 0.1035-2.5726 0.3125-0.622 0.149-1.0826 0.67845-1.1446 1.3144l-0.041 0.42188c-0.047 0.481-0.3233 0.9123-0.7423 1.1543-0.419 0.241-0.9312 0.2684-1.3693 0.0664l-0.3887-0.17578c-0.5791-0.263-1.2691-0.13197-1.7092 0.33203-1.1981 1.26-2.0923 2.8011-2.5803 4.4551-0.182 0.613 0.0474 1.2725 0.5684 1.6445l0.3497 0.25c0.393 0.28301 0.6289 0.73961 0.6289 1.2226 0 0.256-0.0694 0.5027-0.1894 0.7208l0.1875 1.1562s1.4435-0.5469 1.4435-0.5469c0.396-0.149 0.8105-0.2246 1.2325-0.2246 0.055 0 0.1091 0.0146 0.1641 0.0176 0.096-0.365 0.1621-0.7381 0.1621-1.1231 0-1.206-0.4871-2.3553-1.3302-3.1933 0.2401-0.549 0.5444-1.0716 0.9025-1.5566 1.1461 0.311 2.3839 0.15769 3.4281-0.44532 1.0441-0.603 1.7977-1.601 2.1017-2.75 0.6091-0.072 1.189-0.072 1.7991 0 0.303 1.149 1.0547 2.147 2.0998 2.75 1.0431 0.604 2.28 0.75632 3.4281 0.44532 0.358 0.484 0.6624 1.0076 0.9024 1.5566-0.8431 0.839-1.3302 1.9874-1.3302 3.1933 0 1.206 0.4871 2.3554 1.3302 3.1934-0.24 0.549-0.5444 1.0716-0.9024 1.5566-1.1461-0.311-2.384-0.1576-3.4281 0.4454-1.0451 0.603-1.7978 1.601-2.1018 2.75-0.344 0.041-0.6777 0.0518-1.0138 0.0468 0.171 0.45 0.328 0.9033 0.4591 1.3653 0.152 0.537 0.1654 1.0902 0.0644 1.6172 0.7131-0.028 1.4382-0.1141 2.1663-0.2891 0.621-0.149 1.0806-0.6785 1.1427-1.3145 0 0 0.041-0.4238 0.041-0.4238 0.047-0.481 0.3232-0.9103 0.7422-1.1523 0.4201-0.24 0.9323-0.2664 1.3693-0.0664l0.3887 0.1757c0.5791 0.265 1.2702 0.133 1.7092-0.332 1.1981-1.26 2.0923-2.8011 2.5803-4.4551 0.1821-0.614-0.0473-1.2735-0.5684-1.6445l-0.3496-0.25c-0.3931-0.283-0.629-0.7397-0.629-1.2227s0.235-0.9387 0.627-1.2207l0.3516-0.25195c0.5211-0.371 0.7505-1.0305 0.5684-1.6445-0.488-1.654-1.3822-3.1951-2.5803-4.4551-0.44-0.465-1.1311-0.59703-1.7092-0.33203l-0.3867 0.17578c-0.4421 0.2-0.9532 0.1726-1.3713-0.0664-0.419-0.242-0.6952-0.67235-0.7422-1.1524l-0.041-0.42383c-0.0621-0.637-0.5226-1.1654-1.1447-1.3144-0.8661-0.209-1.7189-0.3125-2.5725-0.3125zm0 6.998c-1.2085 0-2.3048 0.50713-2.9964 1.2852-0.6917 0.77803-1.004 1.7565-1.004 2.7148 0 0.9584 0.3123 1.9369 1.004 2.7149 0.6916 0.778 1.7879 1.2851 2.9964 1.2851 1.2084 0 2.3047-0.5071 2.9964-1.2851 0.6916-0.778 1.004-1.7565 1.004-2.7149 0-0.9583-0.3124-1.9368-1.004-2.7148-0.6917-0.77802-1.788-1.2852-2.9964-1.2852zm-16.002 3c-1.2778 0-2.5028 0.17605-3.6625 0.46675-0.5804 0.1457-1.0188 0.6224-1.1153 1.2129l-0.24808 1.5176c-0.09748 0.594-0.45428 1.1096-0.97471 1.4102-0.52044 0.3005-1.1429 0.3516-1.7072 0.1386l-1.4435-0.5468c-0.55959-0.2114-1.1913-0.0702-1.6076 0.3593-1.7032 1.7553-2.9768 3.9256-3.6625 6.3457-0.16287 0.5752 0.031287 1.1921 0.49419 1.5704l1.1935 0.9765c0.46418 0.3822 0.7325 0.9483 0.7325 1.5488 0 0.6015-0.26929 1.168-0.73445 1.5489l-1.1935 0.9765c-0.46219 0.3787-0.65555 0.9956-0.49224 1.5704 0.68652 2.4192 1.9591 4.5902 3.6625 6.3457 0.41637 0.428 1.047 0.5684 1.6056 0.3574 0 0 1.4455-0.5449 1.4455-0.5449 0.56269-0.2126 1.1852-0.1625 1.7072 0.1386 0.52126 0.3007 0.87601 0.8152 0.97276 1.4082l0.24807 1.5176c0.09659 0.5905 0.53489 1.0672 1.1154 1.2129 1.1612 0.2919 2.3866 0.4687 3.6644 0.4687 1.2779 0 2.5028-0.176 3.6625-0.4667 0.5804-0.1457 1.0188-0.6224 1.1153-1.2129l0.2481-1.5176c0.0975-0.5941 0.4543-1.1096 0.9747-1.4102 0.5205-0.3005 1.1429-0.3516 1.7072-0.1386l1.4435 0.5468c0.5596 0.2114 1.1913 0.0702 1.6076-0.3594 1.7032-1.7552 2.9769-3.9256 3.6625-6.3456 0.1629-0.5752-0.0313-1.1921-0.4942-1.5704l-1.1935-0.9765c-0.4641-0.3822-0.7324-0.9483-0.7324-1.5489 0-0.6014 0.2692-1.1679 0.7344-1.5488l1.1935-0.9765c0.4622-0.3788 0.6555-0.9956 0.4922-1.5704-0.6866-2.4224-1.9677-4.5889-3.6664-6.3418-0.4163-0.4295-1.048-0.5707-1.6076-0.3593l-1.4396 0.5429c-0.5626 0.2126-1.1871 0.1625-1.7091-0.1386-0.5213-0.3007-0.876-0.8152-0.9728-1.4082l-0.252-1.5332c-0.0962-0.59-0.5337-1.0666-1.1134-1.2129-1.1703-0.2943-2.3976-0.45315-3.6605-0.45315zm16.002 0c0.4583 0 0.6122 0.11785 0.754 0.27735 0.1417 0.1595 0.2461 0.431 0.2461 0.7226 0 0.2917-0.1044 0.5632-0.2461 0.7227-0.1418 0.1595-0.2957 0.2773-0.754 0.2773-0.4584 0-0.6122-0.1178-0.754-0.2773s-0.2461-0.431-0.2461-0.7227c0-0.2916 0.1043-0.5631 0.2461-0.7226s0.2956-0.27735 0.754-0.27735zm-16.002 3c0.6889 0 1.3382 0.136 1.9944 0.2481l0.0703 0.4355c0.2417 1.4783 1.1374 2.7745 2.4358 3.5235 1.2981 0.7488 2.8665 0.8751 4.268 0.3457l0.4004-0.1504c0.8526 1.0282 1.5248 2.1854 1.9983 3.457l-0.3321 0.2715h-2e-3c-1.1589 0.9491-1.8322 2.3706-1.8322 3.8691 0 1.4986 0.6736 2.9194 1.8303 3.8692 7e-4 6e-4 0.0013 0.0013 2e-3 2e-3l0.334 0.2734c-0.4727 1.2727-1.1437 2.4305-1.9944 3.457l-0.4043-0.1543c-1.4019-0.529-2.9722-0.4018-4.27 0.3477-1.2977 0.7494-2.1913 2.0435-2.4338 3.5215v0.0019l-0.0703 0.4258c-0.6589 0.1159-1.3126 0.2558-1.9944 0.2558-0.6825 0-1.3368-0.1393-1.9963-0.2558l-0.0703-0.4258v-0.0019c-0.2417-1.4782-1.1355-2.7745-2.4339-3.5235-1.2981-0.7488-2.8665-0.8751-4.268-0.3457l-0.40629 0.1524c-0.85043-1.0267-1.5215-2.1836-1.9944-3.4571l0.33402-0.2734h2e-3c1.159-0.9491 1.8322-2.3706 1.8322-3.8692 0-1.4985-0.67357-2.9193-1.8303-3.8691-6.5e-4 -7e-4 -0.00131-0.0013-0.00197-2e-3l-0.334-0.2734c0.47264-1.2727 1.1437-2.4305 1.9944-3.457l0.40434 0.1543c1.4019 0.529 2.9722 0.4018 4.27-0.3477 1.2978-0.7494 2.1913-2.0435 2.4338-3.5215v-0.0019l0.0704-0.4258c0.6588-0.116 1.3125-0.2559 1.9943-0.2559zm0 6c-1.8752 0-3.4715 0.7572-4.4966 1.9102-1.025 1.153-1.5041 2.6315-1.5041 4.0898 0 1.4584 0.47905 2.9369 1.5041 4.0899 1.0251 1.153 2.6214 1.9101 4.4966 1.9101s3.4716-0.7571 4.4966-1.9101 1.504-2.6315 1.504-4.0899c0-1.4583-0.479-2.9368-1.504-4.0898s-2.6214-1.9102-4.4966-1.9102zm0 3c1.1251 0 1.779 0.3679 2.2541 0.9024 0.4752 0.5345 0.7462 1.306 0.7462 2.0976 0 0.7917-0.271 1.5632-0.7462 2.0977-0.4751 0.5345-1.129 0.9023-2.2541 0.9023s-1.779-0.3678-2.2541-0.9023c-0.4752-0.5345-0.7462-1.306-0.7462-2.0977 0-0.7916 0.271-1.5631 0.7462-2.0976 0.4751-0.5345 1.129-0.9024 2.2541-0.9024z" fill="#fff"/>
        </g>
        <g id="g2" transform="translate(0 283.16)">
            <rect id="rect2" width="60" height="60"/>
            <path id="Vector" transform="translate(15 12)" d="m0 5.625c0-3.1066 2.5184-5.625 5.625-5.625h18c3.1066 0 5.625 2.5184 5.625 5.625v24.75c0 3.1066-2.5184 5.625-5.625 5.625h-18c-3.1066 0-5.625-2.5184-5.625-5.625v-24.75zm5.625-3.375c-1.864 0-3.375 1.511-3.375 3.375v24.75c0 1.864 1.511 3.375 3.375 3.375h18c1.864 0 3.375-1.511 3.375-3.375v-24.75c0-1.864-1.511-3.375-3.375-3.375h-18zm13.5 5.625c0 0.46982 0.2916 0.88998 0.7315 1.0542l-4.1065 4.105v-4.0342c0-0.45471-0.274-0.86487-0.6943-1.039-0.4203-0.1742-0.9041-0.0781-1.2259 0.2435l-7.875 7.875c-0.29245 0.2824-0.40975 0.7007-0.3068 1.094 0.10296 0.3934 0.41014 0.7006 0.80348 0.8035 0.39334 0.103 0.81162-0.0143 1.0941-0.3068l5.9544-5.9544v4.0342c0 0.4547 0.274 0.8649 0.6943 1.0391 0.4203 0.1741 0.9041 0.078 1.2259-0.2436l6.0255-6.0254c0.1901 0.5106 0.7188 0.8116 1.255 0.7144 0.5361-0.0972 0.9255-0.5646 0.9243-1.1095v-2.25c0-0.62131-0.5037-1.125-1.125-1.125h-2.25c-0.6213 0-1.125 0.50369-1.125 1.125zm1.125 7.875c0-0.6213 0.5037-1.125 1.125-1.125s1.125 0.5037 1.125 1.125v11.25c0 0.6213-0.5037 1.125-1.125 1.125s-1.125-0.5037-1.125-1.125v-11.25zm-9 2.25c0-0.6213 0.5037-1.125 1.125-1.125s1.125 0.5037 1.125 1.125v9c0 0.6213-0.5037 1.125-1.125 1.125s-1.125-0.5037-1.125-1.125v-9zm6.75 3.375c0-0.6213-0.5037-1.125-1.125-1.125s-1.125 0.5037-1.125 1.125v5.625c0 0.6213 0.5037 1.125 1.125 1.125s1.125-0.5037 1.125-1.125v-5.625zm-10.125 0c0.62131 0 1.125 0.5037 1.125 1.125v4.5c0 0.6213-0.50369 1.125-1.125 1.125-0.62133 0-1.125-0.5037-1.125-1.125v-4.5c0-0.6213 0.50367-1.125 1.125-1.125z" fill="#fff" fill-rule="evenodd"/>
        </g>
        <g id="g3" transform="translate(0 213.16)">
            <rect id="rect3" width="60" height="60"/>
            <path id="path3" transform="translate(12 12)" d="m6.5 0c-3.5719 0-6.5 2.9281-6.5 6.5v23c0 3.5719 2.9281 6.5 6.5 6.5h23c3.5719 0 6.5-2.9281 6.5-6.5v-23c0-3.5719-2.9281-6.5-6.5-6.5h-23zm0 3h23c1.9501 0 3.5 1.5499 3.5 3.5v1.5h-30v-1.5c0-1.9501 1.5499-3.5 3.5-3.5zm-3.5 8h30v18.5c0 1.9501-1.5499 3.5-3.5 3.5h-23c-1.9501 0-3.5-1.5499-3.5-3.5v-18.5zm6.5 4c-1.3807 0-2.5 1.1193-2.5 2.5s1.1193 2.5 2.5 2.5c1.3807 0 2.5-1.1193 2.5-2.5s-1.1193-2.5-2.5-2.5zm8.5 0c-1.3807 0-2.5 1.1193-2.5 2.5s1.1193 2.5 2.5 2.5 2.5-1.1193 2.5-2.5-1.1193-2.5-2.5-2.5zm8.5 0c-1.3807 0-2.5 1.1193-2.5 2.5s1.1193 2.5 2.5 2.5 2.5-1.1193 2.5-2.5-1.1193-2.5-2.5-2.5zm-17 9c-1.3807 0-2.5 1.1193-2.5 2.5s1.1193 2.5 2.5 2.5c1.3807 0 2.5-1.1193 2.5-2.5s-1.1193-2.5-2.5-2.5zm8.5 0c-1.3807 0-2.5 1.1193-2.5 2.5s1.1193 2.5 2.5 2.5 2.5-1.1193 2.5-2.5-1.1193-2.5-2.5-2.5z" fill="#fff"/>
        </g>
        <g id="g4" transform="translate(0 140)">
            <rect id="rect4" width="60" height="63.156"/>
            <path id="path4" transform="translate(12 12)" d="m17.951 6.7043e-4c-0.3198 0.01008-0.6276 0.11415-0.8787 0.29731l-14.213 10.336c-1.8039 1.3122-2.8591 3.3174-2.8591 5.4373v17.621c0 1.2586 1.1365 2.3078 2.5002 2.3078h9.9997l0.0039-4e-4h10.992l0.0039 4e-4h9.9997c1.3636 0 2.5002-1.0492 2.5002-2.3078v-17.621c0-2.1199-1.0553-4.1251-2.8591-5.4373l-14.213-10.336c-0.2773-0.20225-0.6234-0.30745-0.9771-0.29731zm0.049 3.1476 13.285 9.6616c1.0841 0.7886 1.7147 1.9883 1.7147 3.2614v17.159h-30.001v-17.159c0-1.2732 0.63064-2.4729 1.7147-3.2614l13.286-9.6616zm-0.0155 3.4827c-0.5564 0-0.927 0.34215-0.927 0.85566v1.1411c-3.8635 0.31383-5.378 2.6248-5.378 4.7646 0 3.2239 2.7199 4.2794 5.378 5.1638v6.7334c-1.6381-0.2283-2.6583-1.17-3.0292-2.5393-0.1545-0.485-0.5564-0.8273-1.0818-0.8273h-0.4944c-0.5873 0-0.9581 0.2853-0.9581 0.7418v1e-3c0 0.0571 0 0.142 0.0307 0.1987 0.4636 2.5677 2.4112 4.251 5.5328 4.5079v1.1411c0 0.5135 0.3706 0.856 0.9269 0.856 0.5564 0 0.9274-0.3425 0.9274-0.856v-1.1411c3.9564-0.2853 5.5943-2.4823 5.5943-5.1926 0-3.395-2.9053-4.4507-5.5943-5.3352v-6.1053c1.2673 0.2853 2.1326 1.1125 2.5345 2.2253 0.1545 0.4565 0.5564 0.7989 1.0818 0.7989h0.5255c0.5255 0 0.927-0.2853 0.927-0.7418v-1e-3c0-0.0571 0-0.1419-0.0307-0.227-0.4945-2.2253-2.3181-3.8231-5.038-4.1369v-1.1699c0-0.51354-0.371-0.85566-0.9274-0.85587zm-0.927 4.051v5.5635c-1.6072-0.5991-2.8129-1.3411-2.8129-2.8533 0-1.2838 0.8657-2.4536 2.8129-2.7102zm1.8544 8.5017c1.7308 0.6276 3.1218 1.4266 3.1218 3.0528 0 1.5976-1.1128 2.7676-3.1218 3.0527v-6.1055z" fill="#fff" fill-rule="evenodd"/>
        </g>
        <g id="g5" transform="translate(0 70)">
            <rect id="rect5" width="60" height="60"/>
            <path id="path5" transform="translate(10.94 10.941)" d="m34.143 11.682h3.9761v-2.5226c0-2.5294-0.8943-4.6883-2.6828-6.4768-1.7885-1.7885-3.9474-2.6828-6.4768-2.6828h-2.5213v3.9769h1.5004c1.7133 9e-5 3.1756 0.60584 4.3871 1.8173 1.2115 1.2115 1.8172 2.6739 1.8173 4.3871v1.5009zm-34.143 0h3.9768v-1.5009c0-1.7132 0.60571-3.1755 1.8171-4.3869 1.2115-1.2115 2.6738-1.8173 4.3871-1.8174h1.5013v-3.9769h-2.5231c-2.5294 2.0027e-5 -4.6883 0.89428-6.4768 2.6828-1.7885 1.7886-2.6828 3.9475-2.6828 6.4768l4.2725e-4 2.5226zm18.859-5.6225c-2.7276 0-5.0435 1.7369-5.9199 4.1624-0.2414 0.6684-0.3801 1.3859-0.3801 2.1375 0 3.4793 2.8205 6.2999 6.2999 6.2999s6.2999-2.8206 6.2999-6.2999c0-0.7516-0.1386-1.4691-0.3801-2.1375-0.8762-2.4254-3.192-4.1624-5.9197-4.1624zm-7.9311 14.4c-0.1732 0-0.3411 0.0216-0.5058 0.051-1.342 0.2395-2.3629 1.4054-2.3629 2.8169v0.5072c0 1.2428 0.31862 2.3303 0.8767 3.2624 0.3856 0.6441 0.8923 1.2079 1.4862 1.7002 0.2998 0.2485 0.6142 0.4846 0.958 0.6939 1.977 1.2035 4.6345 1.7684 7.4789 1.7684s5.5018-0.5649 7.4789-1.7684c0.3441-0.2095 0.6588-0.4459 0.9588-0.6947 0.5935-0.4922 1.1-1.0557 1.4854-1.6994 0.558-0.9321 0.8767-2.0196 0.8767-3.2625v-0.5071c0-1.4111-1.0206-2.5766-2.362-2.8165-0.165-0.0295-0.3329-0.0514-0.5063-0.0514h-15.863zm27.19 5.9777h-3.9759v1.5009c0 1.7132-0.6057 3.1755-1.8171 4.3869-1.2116 1.2116-2.6739 1.8174-4.3871 1.8174h-1.5004v3.9761h2.5213c2.5293 1e-4 4.6882-0.8941 6.4768-2.6828 1.7885-1.7885 2.6828-3.9475 2.6828-6.4768l-4e-4 -2.5217zm-26.436 11.682v-3.976h-1.5013c-1.7133 0-3.1756-0.6058-4.3871-1.8173-1.2115-1.2115-1.8172-2.6738-1.8173-4.3871v-1.5008h-3.977v2.5217c3.815e-6 2.5293 0.89427 4.6883 2.6828 6.4768 1.7885 1.7885 3.9474 2.6828 6.4768 2.6828l2.523-1e-4z" fill="#fff" fill-rule="evenodd"/>
        </g>
        <g id="g6">
            <rect id="rect6" width="60" height="60"/>
            <path id="path6" transform="translate(10 15)" d="m1.5214 1.5068e-4c-0.54095-0.0076485-1.0441 0.27657-1.3168 0.74381-0.27271 0.46725-0.27271 1.0451 2e-6 1.5124 0.27271 0.46725 0.77588 0.75146 1.3168 0.74381h37c0.5409 0.00765 1.0441-0.27656 1.3168-0.74381s0.2727-1.0451 0-1.5124c-0.2727-0.46725-0.7759-0.75146-1.3168-0.74381h-37zm0 13.5c-0.54095-0.0077-1.0441 0.2765-1.3168 0.7438-0.27271 0.4672-0.27271 1.0451 2e-6 1.5123 0.27271 0.4673 0.77588 0.7515 1.3168 0.7439h37c0.5409 0.0076 1.0441-0.2766 1.3168-0.7439 0.2727-0.4672 0.2727-1.0451 0-1.5123-0.2727-0.4673-0.7759-0.7515-1.3168-0.7438h-37zm0 13.5c-0.54095-0.0076-1.0441 0.2766-1.3168 0.7439-0.27271 0.4672-0.27271 1.0451 2e-6 1.5123 0.27271 0.4673 0.77588 0.7515 1.3168 0.7438h37c0.5409 0.0077 1.0441-0.2765 1.3168-0.7438 0.2727-0.4672 0.2727-1.0451 0-1.5123-0.2727-0.4673-0.7759-0.7515-1.3168-0.7439h-37z" fill="#fff"/>
        </g>
    </g>
</svg>
