<svg width="60" height="63.156" viewBox="0 0 60 63.156" fill="none" xmlns="http://www.w3.org/2000/svg">
  <g>
    <rect width="60" height="63.156" />
    <path id="Shape" d="M17.9508 0.000670433C17.631 0.0107508 17.3232 0.11482 17.0721 0.297976L2.85909 10.634C1.0552 11.9462 0 13.9514 0 16.0713L0 33.6922C0 34.9508 1.13652 36 2.50018 36L12.4999 36L12.5038 35.9996L23.4962 35.9996L23.5001 36L33.4998 36C34.8634 36 36 34.9508 36 33.6922L36 16.0713C36 13.9514 34.9447 11.9462 33.1409 10.634L18.9279 0.297976C18.6506 0.0957298 18.3045 -0.00947094 17.9508 0.000670433L17.9508 0.000670433ZM17.9998 3.14828L31.2851 12.8099C32.3692 13.5985 32.9998 14.7982 32.9998 16.0713L32.9998 33.2307L2.99882 33.2307L2.99882 16.0713C2.99882 14.7981 3.62946 13.5984 4.71356 12.8099L17.9998 3.14828L17.9998 3.14828ZM17.9843 8.63095C17.4279 8.63095 17.0573 8.9731 17.0573 9.48661L17.0573 10.6278C13.1938 10.9416 11.6793 13.2525 11.6793 15.3923C11.6793 18.6162 14.3992 19.6717 17.0573 20.5561L17.0573 27.2895C15.4192 27.0612 14.399 26.1195 14.0281 24.7502C13.8736 24.2652 13.4717 23.9229 12.9463 23.9229L12.4519 23.9229C11.8646 23.9229 11.4938 24.2082 11.4938 24.6647L11.4938 24.6657C11.4938 24.7228 11.4938 24.8077 11.5245 24.8644C11.9881 27.4321 13.9357 29.1154 17.0573 29.3723L17.0573 30.5134C17.0573 31.0269 17.4279 31.3694 17.9842 31.3694C18.5406 31.3694 18.9116 31.0269 18.9116 30.5134L18.9116 29.3723C22.868 29.087 24.5059 26.89 24.5059 24.1797C24.5059 20.7847 21.6006 19.729 18.9116 18.8445L18.9116 12.7392C20.1789 13.0245 21.0442 13.8517 21.4461 14.9645C21.6006 15.421 22.0025 15.7634 22.5279 15.7634L23.0534 15.7634C23.5789 15.7634 23.9804 15.4781 23.9804 15.0216L23.9804 15.0206C23.9804 14.9635 23.9804 14.8787 23.9497 14.7936C23.4552 12.5683 21.6316 10.9705 18.9117 10.6567L18.9117 9.48682C18.9117 8.97328 18.5407 8.63116 17.9843 8.63095L17.9843 8.63095ZM17.0573 12.682L17.0573 18.2455C15.4501 17.6464 14.2444 16.9044 14.2444 15.3922C14.2444 14.1084 15.1101 12.9386 17.0573 12.682L17.0573 12.682ZM18.9117 21.1837C20.6425 21.8113 22.0335 22.6103 22.0335 24.2365C22.0335 25.8341 20.9207 27.0041 18.9117 27.2892L18.9117 21.1837L18.9117 21.1837Z" fill="#FFFFFF" fill-rule="evenodd" transform="translate(12 12)" />
  </g>
</svg>