<svg id="svg1" fill="none" version="1.1" viewBox="0 0 126 157.5" xmlns="http://www.w3.org/2000/svg">
    <g id="g12">
        <path id="Shape" d="m17.719 9.5367e-7c-9.7158 0-17.719 8.003-17.719 17.719v122.06c0 9.716 8.003 17.719 17.719 17.719h90.562c9.716 0 17.719-8.003 17.719-17.719v-82.687c0-1.5653-0.622-3.0674-1.73-4.1751 0 0-0.062-0.0624-0.062-0.0624s-51.126-51.126-51.126-51.126c-1.1075-1.1076-2.6096-1.73-4.1759-1.7304zm0 11.812h45.281v33.469c0 9.7157 8.003 17.719 17.719 17.719h33.469v76.781c0 3.333-2.574 5.907-5.907 5.907h-90.562c-3.3331 0-5.9063-2.574-5.9063-5.907v-122.06c0-3.3331 2.5732-5.9063 5.9063-5.9063zm57.094 8.3518 31.024 31.023h-25.117c-3.3331 0-5.9063-2.5732-5.9063-5.9062z" fill="#fff"/>
        <g fill="none" stroke="#fff">
            <path id="path1" transform="matrix(.82293 0 0 1.0036 12.843 -4.3995)" d="m17.541 136.4 27.881-48.291a1.387 1.387 180 0 1 2.4024 0l26.429 45.777a1.4732 1.4732 1.5184 0 0 2.5109 0.0666l30.491-46.887" stroke-width="6.6452"/>
            <path id="path2" d="m26.656 124.68c-2.8871 0.43841-5.2755 3.0249-5.3923 5.9556-0.27236 3.0928 2.0536 6.1335 5.1062 6.6943 2.9848 0.68685 6.2881-1.1206 7.306-4.0135 1.1412-2.7869-0.04162-6.2584-2.6469-7.7733-1.2964-0.81567-2.8665-1.0884-4.3729-0.86319z" stroke-width="2.342"/>
            <path id="path2-8" d="m99.898 76.58c-2.8213 0.42688-5.1788 2.8965-5.3846 5.7543-0.37335 3.1125 1.9053 6.2606 4.9837 6.8663 3.0093 0.75968 6.3823-1.0552 7.4119-3.9837 1.1441-2.7873-0.0427-6.2585-2.6458-7.7757-1.2957-0.807-2.8615-1.0926-4.3652-0.86112z" stroke-width="2.342"/>
        </g>
        <path id="path11" d="m27.028 125.35c-3.3936 0.30748-5.9468 4.0914-4.7958 7.3429 0.81937 2.9518 4.2558 4.8379 7.1616 3.7539 2.3863-0.76761 4.2665-3.1987 3.8893-5.7693-0.12196-0.84818 0.0061-2.1998-0.98414-2.536-0.91201 0.18324-0.98679 1.4338-1.4842 2.086-0.50691 1.0295-0.99638 2.0674-1.4947 3.1011-1.226-0.8591-2.4518-1.7183-3.6777-2.5776 0.66619-1.6475 1.6566-3.1978 2.1545-4.8922-0.04358-0.37246-0.43215-0.54654-0.76897-0.50891z" fill="#fff" fill-rule="evenodd" stroke="#fff" stroke-width=".94108"/>
        <path id="path12" d="m100.66 77.254c-2.9145 0.01284-5.6124 2.741-5.3937 5.6919 0.1105 1.0343 0.06972 2.3286 0.88876 3.0855 0.92974 0.34922 1.1562-1.0188 1.5828-1.5533 0.44868-0.82435 0.8772-1.6594 1.3243-2.4847 1.2059 0.91909 2.4279 1.8558 3.5553 2.853-0.41167 1.1054-1.2911 2.1023-1.5271 3.2812 0.3997 0.94124 1.6139 0.18336 2.2691-0.04516 2.4715-1.1009 3.7653-4.0962 3.0567-6.6777-0.66819-2.4739-3.1575-4.3848-5.7562-4.1507z" fill="#fff" fill-rule="evenodd" stroke="#fff" stroke-width=".94108"/>
    </g>
</svg>
