<?xml version="1.0" encoding="utf-8"?>
<svg width="48" height="48" viewBox="0 0 48 48" fill="none" xmlns="http://www.w3.org/2000/svg">
  <g>
    <rect width="48" height="48" />
    <path id="Shape" d="M19.2051 0C17.6282 0 16.1077 0.199429 14.6562 0.537109C14.0359 0.681899 13.5747 1.20266 13.5059 1.83594C13.5059 1.83594 13.1875 4.73828 13.1875 4.73828C13.0834 5.68936 12.534 6.53085 11.7051 7.00977C10.8778 7.48772 9.87369 7.54067 8.99804 7.15625C8.99804 7.15625 8.99609 7.15625 8.99609 7.15625C8.99609 7.15625 6.33007 5.98242 6.33007 5.98242C5.74728 5.72596 5.06608 5.86533 4.63086 6.33008C2.55836 8.53959 0.967755 11.2151 0.0644493 14.2012C-0.119952 14.8103 0.100029 15.4694 0.613277 15.8457C0.613277 15.8457 2.97851 17.5801 2.97851 17.5801C3.75087 18.1479 4.20507 19.0428 4.20507 20C4.20507 20.9577 3.75088 21.8533 2.97851 22.4199C2.97851 22.4199 0.613277 24.1523 0.613277 24.1523C0.10003 24.5286 -0.119952 25.1878 0.0644493 25.7969C0.967659 28.7827 2.557 31.4601 4.63086 33.6699C5.06655 34.134 5.74769 34.2726 6.33007 34.0156C6.33007 34.0156 8.99609 32.8418 8.99609 32.8418C9.87217 32.4565 10.8772 32.5119 11.7051 32.9902C12.534 33.4691 13.0834 34.3106 13.1875 35.2617C13.1875 35.2617 13.5059 38.1641 13.5059 38.1641C13.5752 38.796 14.0353 39.3157 14.6543 39.4609C16.1064 39.7998 17.6282 40 19.2051 40C20.782 40 22.3024 39.8006 23.7539 39.4629C24.3742 39.3181 24.8355 38.7973 24.9043 38.1641C24.9043 38.1641 25.2227 35.2617 25.2227 35.2617C25.3268 34.3106 25.8762 33.4691 26.7051 32.9902C27.5323 32.5123 28.5364 32.4574 29.4121 32.8418C29.4121 32.8418 32.0801 34.0156 32.0801 34.0156C32.6625 34.2726 33.3436 34.134 33.7793 33.6699C35.8518 31.4604 37.4424 28.783 38.3457 25.7969C38.5301 25.1878 38.3101 24.5286 37.7969 24.1523C37.7969 24.1523 35.4316 22.4199 35.4316 22.4199C34.6593 21.8533 34.2051 20.9577 34.2051 20C34.2051 19.0423 34.6593 18.1467 35.4316 17.5801C35.4316 17.5801 37.7969 15.8477 37.7969 15.8477C38.3101 15.4714 38.5301 14.8122 38.3457 14.2031C37.4424 11.217 35.8518 8.53959 33.7793 6.33008C33.3436 5.866 32.6625 5.72743 32.0801 5.98438C32.0801 5.98438 29.4121 7.1582 29.4121 7.1582C28.5364 7.54262 27.5323 7.48772 26.7051 7.00977C25.8762 6.53085 25.3268 5.68936 25.2227 4.73828C25.2227 4.73828 24.9043 1.83594 24.9043 1.83594C24.835 1.20397 24.3748 0.684327 23.7559 0.539063C22.3037 0.200156 20.782 0 19.2051 0C19.2051 0 19.2051 0 19.2051 0ZM19.2051 3C20.1794 3 21.115 3.17488 22.0527 3.33984C22.0527 3.33984 22.2402 5.06445 22.2402 5.06445C22.4481 6.96338 23.552 8.65234 25.2051 9.60742C26.8592 10.5631 28.8732 10.673 30.6211 9.9043C30.6211 9.9043 32.207 9.20703 32.207 9.20703C33.4249 10.6694 34.3891 12.3212 35.0625 14.1309C35.0625 14.1309 33.6563 15.1621 33.6563 15.1621C32.1166 16.2915 31.2051 18.0897 31.2051 20C31.2051 21.9103 32.1166 23.7085 33.6563 24.8379C33.6563 24.8379 35.0625 25.8691 35.0625 25.8691C34.3891 27.6788 33.4249 29.3306 32.207 30.793C32.207 30.793 30.6211 30.0957 30.6211 30.0957C28.8732 29.327 26.8592 29.4369 25.2051 30.3926C23.552 31.3477 22.4481 33.0366 22.2402 34.9355C22.2402 34.9355 22.0527 36.6602 22.0527 36.6602C21.1151 36.8247 20.1789 37 19.2051 37C18.2308 37 17.2952 36.8251 16.3574 36.6602C16.3574 36.6602 16.1699 34.9355 16.1699 34.9355C15.962 33.0366 14.8582 31.3477 13.2051 30.3926C11.5509 29.4369 9.53698 29.327 7.78906 30.0957C7.78906 30.0957 6.20312 30.793 6.20312 30.793C4.98505 29.3308 4.02102 27.679 3.34765 25.8691C3.34765 25.8691 4.7539 24.8379 4.7539 24.8379C6.29354 23.7085 7.20507 21.9103 7.20507 20C7.20507 18.0897 6.29279 16.2904 4.7539 15.1602C4.7539 15.1602 3.34765 14.1289 3.34765 14.1289C4.02141 12.3185 4.98652 10.6678 6.20507 9.20508C6.20507 9.20508 7.78906 9.90234 7.78906 9.90234C9.53698 10.6711 11.5509 10.5631 13.2051 9.60742C14.8582 8.65234 15.962 6.96338 16.1699 5.06445C16.1699 5.06445 16.3574 3.33984 16.3574 3.33984C17.2951 3.17534 18.2313 3 19.2051 3C19.2051 3 19.2051 3 19.2051 3ZM19.2051 12C14.8046 12 11.2051 15.5995 11.2051 20C11.2051 24.4005 14.8046 28 19.2051 28C23.6056 28 27.2051 24.4005 27.2051 20C27.2051 15.5995 23.6056 12 19.2051 12C19.2051 12 19.2051 12 19.2051 12ZM19.2051 15C21.9843 15 24.2051 17.2208 24.2051 20C24.2051 22.7792 21.9843 25 19.2051 25C16.4259 25 14.2051 22.7792 14.2051 20C14.2051 17.2208 16.4259 15 19.2051 15C19.2051 15 19.2051 15 19.2051 15Z" fill="#FFFFFF" transform="translate(4.795 4)" />
  </g>
</svg>