<?xml version="1.0" encoding="utf-8"?>
<svg width="154" height="48" viewBox="0 0 154 48" fill="none" xmlns="http://www.w3.org/2000/svg">
  <g>
    <rect width="154" height="48" />
    <g transform="translate(106 0)">
      <rect width="48" height="48" />
      <g id="group-1" transform="matrix(-1 0 0 1 39.51 9.378)">
        <path id="path-2" d="M15.0689 3.5352C15.0689 3.5352 11.5337 0 11.5337 0C7.8389 3.7214 4.0889 7.391 0.429703 11.146C-0.875697 12.8439 1.01977 15.6013 3.0798 14.9987C4.5312 14.5101 5.3535 13.0994 6.4723 12.1326C9.338 9.2669 12.2036 6.4013 15.0693 3.5356C15.0693 3.5356 15.0689 3.5352 15.0689 3.5352Z" fill="#F44336" fill-rule="evenodd" transform="translate(0 15.059)" />
        <path id="rectangle-1" d="M3.5352 0L0 3.5352C0 3.5352 3.5352 7.0704 3.5352 7.0704C4.7136 5.892 5.892 4.7136 7.0704 3.5352C5.892 2.3568 4.7136 1.1784 3.5352 0C3.5352 0 3.5352 0 3.5352 0Z" fill="#F44336" fill-rule="evenodd" transform="translate(11.534 11.524)" />
        <path id="path-1" d="M2.52053 0.00226453C0.464431 -0.0933785 -0.90827 2.86496 0.714531 4.25826C4.29673 7.87116 7.90663 11.4563 11.4995 15.0593C11.4995 15.0593 15.0347 11.5241 15.0347 11.5241C11.3065 7.83186 7.64933 4.06056 3.87573 0.419063C3.47938 0.149193 3.00096 -0.000667066 2.52093 0.00294355C2.52093 0.00294355 2.52053 0.00226453 2.52053 0.00226453Z" fill="#F44336" fill-rule="evenodd" transform="translate(0.034 0)" />
      </g>
      <g id="group-2" transform="translate(9.376 9.378)">
        <path id="path-4" d="M15.0689 3.5352C15.0689 3.5352 11.5337 0 11.5337 0C7.8389 3.7214 4.0889 7.391 0.429703 11.146C-0.875697 12.8439 1.01977 15.6013 3.0798 14.9987C4.5312 14.5101 5.3535 13.0994 6.4723 12.1326C9.338 9.2669 12.2036 6.4013 15.0693 3.5356C15.0693 3.5356 15.0689 3.5352 15.0689 3.5352Z" fill="#F44336" fill-rule="evenodd" transform="translate(0 15.059)" />
        <path id="rectangle-2" d="M3.5352 0L0 3.5352C0 3.5352 3.5352 7.0704 3.5352 7.0704C4.7136 5.892 5.892 4.7136 7.0704 3.5352C5.892 2.3568 4.7136 1.1784 3.5352 0C3.5352 0 3.5352 0 3.5352 0Z" fill="#F44336" fill-rule="evenodd" transform="translate(11.534 11.524)" />
        <path id="path-3" d="M2.52053 0.00226448C0.46443 -0.0933776 -0.90827 2.86496 0.71453 4.25826C4.29673 7.87116 7.90663 11.4563 11.4995 15.0593C11.4995 15.0593 15.0347 11.5241 15.0347 11.5241C11.3065 7.83186 7.64933 4.06056 3.87573 0.419063C3.47938 0.149193 3.00096 -0.00066711 2.52093 0.0029435C2.52093 0.0029435 2.52053 0.00226448 2.52053 0.00226448Z" fill="#F44336" fill-rule="evenodd" transform="translate(0.034 0)" />
      </g>
    </g>
    <g>
      <rect width="48" height="48" />
      <path id="Rectangle" d="M24 0C25.1047 0 26 0.895281 26 2L26 2C26 3.10472 25.1047 4 24 4L2 4C0.89528 4 0 3.10472 0 2L0 2C0 0.895281 0.89528 0 2 0L24 0Z" fill="#FFFFFF" transform="translate(11 22)" />
    </g>
    <g transform="translate(64 10)">
      <rect width="26.009" height="26.009" rx="5" />
      <g>
        <path id="Rectangle" d="M21.0085 0C23.7703 0 26.0085 2.2382 26.0085 5L26.0085 21.0085C26.0085 23.7703 23.7703 26.0085 21.0085 26.0085L5 26.0085C2.2382 26.0085 0 23.7703 0 21.0085L0 5C0 2.2382 2.2382 0 5 0L21.0085 0Z" />
        <path d="M26.0085 5C26.0085 2.2382 23.7703 0 21.0085 0L5 0C2.2382 0 0 2.2382 0 5L0 21.0085C0 23.7703 2.2382 26.0085 5 26.0085L21.0085 26.0085C23.7703 26.0085 26.0085 23.7703 26.0085 21.0085L26.0085 5ZM5 3L21.0085 3Q23.0085 3 23.0085 5L23.0085 21.0085Q23.0085 23.0085 21.0085 23.0085L5 23.0085Q3 23.0085 3 21.0085L3 5Q3 3 5 3Z" fill="#FFFFFF" fill-rule="evenodd" />
      </g>
    </g>
  </g>
</svg>