<svg id="svg1" fill="none" version="1.1" viewBox="0 0 192 192" xmlns="http://www.w3.org/2000/svg">
    <g id="background" display="none">
        <rect id="fill" transform="translate(-.0026154 -.0018481)" x=".0026154" y=".0018481" width="192" height="192" display="inline" fill-rule="evenodd" stroke-width="1.1672"/>
    </g>
    <g id="shapes" transform="translate(-.0026154 -.0018481)" fill="#fff" stroke="#fff" stroke-width="1.0597">
        <path id="outside-4" d="m176 133.5h-8.252v1.9609a32.286 32.286 0 0 1-32.285 32.285h-1.959v8.252h6.4961a36 36 0 0 0 36-36z"/>
        <path id="outside-3" d="m58.505 176v-8.252h-1.9629a32.286 32.286 0 0 1-32.285-32.285v-1.9609h-8.2559v6.498a36 36 0 0 0 36 36z"/>
        <path id="outside-2" d="m167.75 58.502h8.252v-6.502a36 36 0 0 0-36-36h-6.4961v8.2559h1.959a32.286 32.286 0 0 1 32.285 32.285z"/>
        <path id="outside-1" d="m16.001 58.502h8.2559v-1.9609a32.286 32.286 0 0 1 32.285-32.285h1.9629v-8.2559h-6.5039a36 36 0 0 0-36 36z"/>
    </g>
    <g id="profile" clip-rule="evenodd" fill="#fff" fill-rule="evenodd">
        <path id="head" d="m96 40c-12.123 0-22.416 7.7198-26.311 18.5-1.0731 2.9704-1.6895 6.1594-1.6895 9.5 0 15.464 12.536 28 28 28s28-12.536 28-28c0-3.3406-0.61631-6.5296-1.6894-9.5-3.8946-10.78-14.187-18.5-26.311-18.5z"/>
        <path id="body" d="m60.75 104c-0.76962 0-1.5159 0.0959-2.248 0.22656-5.9645 1.0644-10.502 6.2465-10.502 12.52v2.2539c0 5.5239 1.4161 10.357 3.8965 14.5 1.7138 2.8625 3.9658 5.3686 6.6055 7.5566 1.3324 1.1044 2.73 2.1538 4.2578 3.084 8.7867 5.349 20.598 7.8594 33.24 7.8594 12.642 0 24.453-2.5104 33.24-7.8594 1.5294-0.93113 2.9282-1.9821 4.2617-3.0879 2.6377-2.1872 4.8888-4.6917 6.6016-7.5527 2.4803-4.143 3.8965-8.9761 3.8965-14.5v-2.2539c0-6.2717-4.5359-11.452-10.498-12.518-0.73321-0.13106-1.4792-0.22852-2.25-0.22852h-70.502z"/>
    </g>
</svg>
