<?xml version="1.0" encoding="UTF-8" standalone="no"?>
<svg
   viewBox="0 0 192 192"
   fill="none"
   version="1.1"
   id="svg1"
   sodipodi:docname="user-profile.svg"
   inkscape:version="1.4 (86a8ad7, 2024-10-11)"
   xmlns:inkscape="http://www.inkscape.org/namespaces/inkscape"
   xmlns:sodipodi="http://sodipodi.sourceforge.net/DTD/sodipodi-0.dtd"
   xmlns="http://www.w3.org/2000/svg"
   xmlns:svg="http://www.w3.org/2000/svg">
  <defs
     id="defs1">
    <inkscape:path-effect
       effect="fillet_chamfer"
       id="path-effect15"
       is_visible="true"
       lpeversion="1"
       nodesatellites_param="F,0,0,1,0,36,0,4 @ F,0,0,1,0,36,0,4 @ F,0,0,1,0,36,0,4 @ F,0,0,1,0,36,0,4"
       radius="36"
       unit="px"
       method="auto"
       mode="F"
       chamfer_steps="4"
       flexible="false"
       use_knot_distance="true"
       apply_no_radius="true"
       apply_with_radius="true"
       only_selected="false"
       hide_knots="false" />
    <inkscape:path-effect
       effect="powerstroke"
       message=""
       id="path-effect13"
       is_visible="true"
       lpeversion="1.3"
       scale_width="12.074303"
       interpolator_type="CentripetalCatmullRom"
       interpolator_beta="0.24148607"
       start_linecap_type="zerowidth"
       end_linecap_type="zerowidth"
       offset_points="2,0.529845"
       linejoin_type="round"
       miter_limit="4"
       not_jump="false"
       sort_points="true" />
    <inkscape:path-effect
       effect="offset"
       id="path-effect12"
       is_visible="true"
       lpeversion="1.3"
       linejoin_type="miter"
       unit="mm"
       offset="0"
       miter_limit="4"
       attempt_force_join="false"
       update_on_knot_move="true" />
    <inkscape:path-effect
       effect="fillet_chamfer"
       id="path-effect11"
       is_visible="true"
       lpeversion="1"
       nodesatellites_param="F,0,0,1,0,30,0,4 @ F,0,0,1,0,30,0,4 @ F,0,0,1,0,30,0,4 @ F,0,0,1,0,30,0,4"
       radius="30"
       unit="px"
       method="auto"
       mode="F"
       chamfer_steps="4"
       flexible="false"
       use_knot_distance="true"
       apply_no_radius="true"
       apply_with_radius="true"
       only_selected="false"
       hide_knots="false" />
    <inkscape:path-effect
       effect="fillet_chamfer"
       id="path-effect10"
       is_visible="true"
       lpeversion="1"
       nodesatellites_param="F,0,0,1,0,29,0,4 @ F,0,0,1,0,29,0,4 @ F,0,0,1,0,29,0,4 @ F,0,0,1,0,29,0,4"
       radius="0"
       unit="px"
       method="arc"
       mode="F"
       chamfer_steps="4"
       flexible="false"
       use_knot_distance="true"
       apply_no_radius="true"
       apply_with_radius="true"
       only_selected="true"
       hide_knots="false" />
    <inkscape:path-effect
       effect="fillet_chamfer"
       id="path-effect6"
       is_visible="true"
       lpeversion="1"
       nodesatellites_param="F,0,0,1,0,0,0,1 @ F,0,0,1,0,0,0,1 @ F,0,0,1,0,0,0,1 @ F,0,0,1,0,0,0,1"
       radius="0"
       unit="px"
       method="auto"
       mode="F"
       chamfer_steps="1"
       flexible="false"
       use_knot_distance="true"
       apply_no_radius="true"
       apply_with_radius="true"
       only_selected="false"
       hide_knots="false" />
    <inkscape:path-effect
       effect="fill_between_many"
       method="bsplinespiro"
       autoreverse="false"
       close="false"
       join="false"
       linkedpaths="#rect5,0,1"
       id="path-effect14" />
    <inkscape:path-effect
       effect="fillet_chamfer"
       id="path-effect15-1"
       is_visible="true"
       lpeversion="1"
       nodesatellites_param="F,0,0,1,0,36,0,4 @ F,0,0,1,0,36,0,4 @ F,0,0,1,0,36,0,4 @ F,0,0,1,0,36,0,4"
       radius="36"
       unit="px"
       method="auto"
       mode="F"
       chamfer_steps="4"
       flexible="false"
       use_knot_distance="true"
       apply_no_radius="true"
       apply_with_radius="true"
       only_selected="false"
       hide_knots="false" />
  </defs>
  <sodipodi:namedview
     id="namedview1"
     pagecolor="#2b2b2b"
     bordercolor="#000000"
     borderopacity="0.25"
     inkscape:showpageshadow="2"
     inkscape:pageopacity="0.0"
     inkscape:pagecheckerboard="0"
     inkscape:deskcolor="#d1d1d1"
     inkscape:zoom="2.8284271"
     inkscape:cx="134.70384"
     inkscape:cy="112.60676"
     inkscape:window-width="1920"
     inkscape:window-height="1017"
     inkscape:window-x="-8"
     inkscape:window-y="32"
     inkscape:window-maximized="1"
     inkscape:current-layer="layer6"
     showgrid="true">
    <inkscape:grid
       id="grid12"
       units="px"
       originx="0"
       originy="0"
       spacingx="1"
       spacingy="1"
       empcolor="#0099e5"
       empopacity="0.30196078"
       color="#0099e5"
       opacity="0.14901961"
       empspacing="5"
       enabled="true"
       visible="true" />
  </sodipodi:namedview>
  <g
     inkscape:groupmode="layer"
     id="layer6"
     inkscape:label="Background"
     style="display:none">
    <rect
       style="display:inline;fill:#000000;fill-opacity:1;fill-rule:evenodd;stroke-width:1.1672"
       id="fill"
       width="192"
       height="192"
       x="0.0026154108"
       y="0.001848083"
       transform="translate(-0.00261541,-0.00184808)"
       inkscape:label="fill" />
  </g>
  <g
     inkscape:groupmode="layer"
     id="layer2"
     inkscape:label="Shapes"
     style="display:inline"
     transform="translate(-0.00261541,-0.00184808)">
    <path
       d="m 176.00066,133.50185 h -8.25195 v 1.96094 a 32.285774,32.285774 0 0 1 -32.28516,32.28515 h -1.95898 v 8.25195 h 6.49609 a 36,36 0 0 0 36,-36 z"
       style="display:inline;fill:#ffffff;stroke:#ffffff;stroke-width:1.05969"
       id="outside-4"
       inkscape:label="outside-4" />
    <path
       d="m 58.504569,175.99989 v -8.25195 H 56.541678 A 32.285774,32.285774 0 0 1 24.256522,135.46279 v -1.96094 h -8.25586 v 6.49804 a 36,36 0 0 0 36,36 z"
       style="display:inline;fill:#ffffff;stroke:#ffffff;stroke-width:1.05969"
       id="outside-3"
       inkscape:label="outside-3" />
    <path
       d="m 167.74871,58.501848 h 8.25195 v -6.501953 a 36,36 0 0 0 -36,-36 h -6.49609 v 8.255859 h 1.95898 a 32.285774,32.285774 0 0 1 32.28516,32.285157 z"
       style="display:inline;fill:#ffffff;stroke:#ffffff;stroke-width:1.05969"
       id="outside-2"
       inkscape:label="outside-2" />
    <path
       d="m 16.000662,58.501848 h 8.25586 V 56.540911 A 32.285774,32.285774 0 0 1 56.541678,24.255754 h 1.962891 v -8.255859 h -6.503907 a 36,36 0 0 0 -36,36 z"
       style="display:inline;fill:#ffffff;stroke:#ffffff;stroke-width:1.05969"
       id="outside-1"
       inkscape:label="outside-1" />
  </g>
  <g
     inkscape:groupmode="layer"
     id="layer1"
     inkscape:label="Profile"
     style="display:inline">
    <path
       id="head"
       style="clip-rule:evenodd;display:inline;fill:#ffffff;fill-rule:evenodd"
       d="M 96 40 C 83.876563 40 73.584052 47.719821 69.689453 58.5 C 68.616312 61.470434 68 64.659437 68 68 C 68 83.464 80.536 96 96 96 C 111.464 96 124 83.464 124 68 C 124 64.659437 123.38369 61.470434 122.31055 58.5 C 118.41595 47.719821 108.12344 40 96 40 z "
       inkscape:label="head" />
    <path
       id="body"
       style="clip-rule:evenodd;display:inline;fill:#ffffff;fill-rule:evenodd"
       d="M 60.75 104 C 59.980378 104 59.234059 104.0959 58.501953 104.22656 C 52.537426 105.29092 48.000089 110.47307 48 116.74609 L 48 119 C 48 124.52389 49.416107 129.357 51.896484 133.5 C 53.610258 136.36253 55.862303 138.86864 58.501953 141.05664 C 59.834336 142.16105 61.23194 143.21047 62.759766 144.14062 C 71.546466 149.48964 83.3582 152 96 152 C 108.642 152 120.45323 149.48963 129.24023 144.14062 C 130.7696 143.20949 132.16843 142.1585 133.50195 141.05273 C 136.13963 138.86554 138.3907 136.361 140.10352 133.5 C 142.58383 129.357 144 124.52389 144 119 L 144 116.74609 C 144 110.47437 139.46412 105.29421 133.50195 104.22852 C 132.76874 104.09746 132.0228 104 131.25195 104 L 60.75 104 z "
       inkscape:label="body" />
  </g>
</svg>
