<svg id="a" version="1.1" viewBox="0 0 180.75 195.82" xml:space="preserve" xmlns="http://www.w3.org/2000/svg">
	<path id="b" d="m90.129 0.0039062c-1.6058 0.05484-3.1514 0.62094-4.4121 1.6172l-71.361 56.221c-9.057 7.1378-14.355 18.045-14.355 29.576v95.846c0 6.846 5.7063 12.553 12.553 12.553h50.207c0.01268 0 0.02444-4e-3 0.03711-4e-3h55.156c0.0127 4e-5 0.0244 4e-3 0.0371 4e-3h50.207c6.846 0 12.553-5.7067 12.553-12.553v-95.846c0-11.531-5.2985-22.438-14.355-29.576l-71.361-56.221c-1.3927-1.1002-3.1303-1.6724-4.9043-1.6172zm0.24609 17.121 66.703 52.553c5.443 4.2897 8.6094 10.815 8.6094 17.74v93.336h-60.25v4e-3h-30.125v-4e-3h-60.25v-93.336c0-6.9255 3.1663-13.451 8.6094-17.74z"/>
	<path id="c" d="m66.096 64.871c-4.5643 1.8e-5 -8.3652 3.8009-8.3652 8.3652v48.559c1.1e-5 4.5643 3.8009 8.3633 8.3652 8.3633h48.559c4.5643 0 8.3652-3.799 8.3652-8.3633v-48.559c0-4.5643-3.8009-8.3652-8.3652-8.3652zm5.3105 14.805h37.938v35.678h-37.938zm-37.953 50.477c-4.5643 2e-5 -8.3652 3.8009-8.3652 8.3652v48.557c1.1e-5 4.5643 3.8009 8.3652 8.3652 8.3652h48.557c4.5643 0 8.3652-3.8009 8.3652-8.3652v-48.557c1e-6 -4.5254-3.7377-8.2954-8.25-8.3594h-16.029c-0.03887 0-0.07648-5e-3 -0.11523-6e-3zm5.3086 14.803h37.939v35.68h-37.939zm76.008-14.803c-0.0388 5.5e-4 -0.0764 6e-3 -0.11523 6e-3h-16.029c-4.5123 0.064-8.25 3.8339-8.25 8.3594v48.557c1.1e-5 4.5643 3.8009 8.3652 8.3652 8.3652h48.557c4.5643 0 8.3652-3.8009 8.3652-8.3652v-48.557c0-4.5643-3.8009-8.3652-8.3652-8.3652zm-10.721 14.803h37.939v35.68h-37.939z" fill-rule="evenodd"/>
</svg>
